<svg xmlns="http://www.w3.org/2000/svg" xmlns:xlink="http://www.w3.org/1999/xlink" width="500" zoomAndPan="magnify" viewBox="0 0 375 374.999991" height="500" preserveAspectRatio="xMidYMid meet" version="1.0"><defs><clipPath id="d0dfb810b0"><path d="M 37.5 66 L 299 66 L 299 330 L 37.5 330 Z M 37.5 66 " clip-rule="nonzero"/></clipPath><clipPath id="1ffd3c8728"><path d="M 58.734375 66.082031 C 47.136719 66.082031 37.597656 75.714844 37.597656 87.425781 L 37.597656 168.320312 C 37.597656 180.03125 47.136719 189.65625 58.734375 189.65625 L 138.847656 189.65625 C 150.445312 189.65625 159.984375 180.03125 159.984375 168.320312 L 159.984375 87.425781 C 159.984375 75.714844 150.445312 66.082031 138.847656 66.082031 Z M 58.734375 79.144531 L 138.847656 79.144531 C 143.503906 79.144531 147.050781 82.722656 147.050781 87.425781 L 147.050781 168.320312 C 147.050781 173.023438 143.503906 176.605469 138.847656 176.605469 L 58.734375 176.605469 C 54.078125 176.605469 50.535156 173.023438 50.535156 168.320312 L 50.535156 87.425781 C 50.535156 82.722656 54.078125 79.144531 58.734375 79.144531 Z M 197.324219 206.023438 C 185.726562 206.023438 176.195312 215.65625 176.195312 227.367188 L 176.195312 308.261719 C 176.195312 319.972656 185.726562 329.605469 197.324219 329.605469 L 277.433594 329.605469 C 289.03125 329.605469 298.574219 319.972656 298.574219 308.261719 L 298.574219 227.367188 C 298.574219 215.65625 289.03125 206.023438 277.433594 206.023438 Z M 197.324219 219.085938 L 277.433594 219.085938 C 282.09375 219.085938 285.636719 222.664062 285.636719 227.367188 L 285.636719 308.261719 C 285.636719 312.960938 282.09375 316.542969 277.433594 316.542969 L 197.324219 316.542969 C 192.664062 316.542969 189.121094 312.960938 189.121094 308.261719 L 189.121094 227.367188 C 189.121094 222.664062 192.664062 219.085938 197.324219 219.085938 Z M 197.324219 219.085938 " clip-rule="nonzero"/></clipPath><linearGradient x1="0.0211484" gradientTransform="matrix(4.36466, 0, 0, 4.360714, 37.505863, 32.010289)" y1="28.91" x2="59.813701" gradientUnits="userSpaceOnUse" y2="28.91" id="a8cecc7c3e"><stop stop-opacity="1" stop-color="rgb(0%, 43.681335%, 78.555298%)" offset="0"/><stop stop-opacity="1" stop-color="rgb(0%, 43.572998%, 78.479004%)" offset="0.015625"/><stop stop-opacity="1" stop-color="rgb(0%, 43.356323%, 78.327942%)" offset="0.03125"/><stop stop-opacity="1" stop-color="rgb(0%, 43.139648%, 78.17688%)" offset="0.046875"/><stop stop-opacity="1" stop-color="rgb(0%, 42.922974%, 78.025818%)" offset="0.0625"/><stop stop-opacity="1" stop-color="rgb(0%, 42.704773%, 77.874756%)" offset="0.078125"/><stop stop-opacity="1" stop-color="rgb(0%, 42.488098%, 77.723694%)" offset="0.09375"/><stop stop-opacity="1" stop-color="rgb(0%, 42.271423%, 77.572632%)" offset="0.109375"/><stop stop-opacity="1" stop-color="rgb(0%, 42.054749%, 77.42157%)" offset="0.125"/><stop stop-opacity="1" stop-color="rgb(0%, 41.838074%, 77.270508%)" offset="0.140625"/><stop stop-opacity="1" stop-color="rgb(0%, 41.621399%, 77.11792%)" offset="0.15625"/><stop stop-opacity="1" stop-color="rgb(0%, 41.404724%, 76.966858%)" offset="0.171875"/><stop stop-opacity="1" stop-color="rgb(0%, 41.186523%, 76.815796%)" offset="0.1875"/><stop stop-opacity="1" stop-color="rgb(0%, 40.969849%, 76.664734%)" offset="0.203125"/><stop stop-opacity="1" stop-color="rgb(0%, 40.753174%, 76.513672%)" offset="0.21875"/><stop stop-opacity="1" stop-color="rgb(0%, 40.536499%, 76.36261%)" offset="0.234375"/><stop stop-opacity="1" stop-color="rgb(0%, 40.319824%, 76.211548%)" offset="0.25"/><stop stop-opacity="1" stop-color="rgb(0%, 40.103149%, 76.060486%)" offset="0.265625"/><stop stop-opacity="1" stop-color="rgb(0%, 39.886475%, 75.909424%)" offset="0.28125"/><stop stop-opacity="1" stop-color="rgb(0%, 39.668274%, 75.758362%)" offset="0.296875"/><stop stop-opacity="1" stop-color="rgb(0%, 39.451599%, 75.6073%)" offset="0.3125"/><stop stop-opacity="1" stop-color="rgb(0%, 39.234924%, 75.454712%)" offset="0.328125"/><stop stop-opacity="1" stop-color="rgb(0%, 39.01825%, 75.30365%)" offset="0.34375"/><stop stop-opacity="1" stop-color="rgb(0%, 38.801575%, 75.152588%)" offset="0.359375"/><stop stop-opacity="1" stop-color="rgb(0%, 38.5849%, 75.001526%)" offset="0.375"/><stop stop-opacity="1" stop-color="rgb(0%, 38.368225%, 74.850464%)" offset="0.390625"/><stop stop-opacity="1" stop-color="rgb(0%, 38.150024%, 74.699402%)" offset="0.40625"/><stop stop-opacity="1" stop-color="rgb(0%, 37.93335%, 74.54834%)" offset="0.421875"/><stop stop-opacity="1" stop-color="rgb(0%, 37.716675%, 74.397278%)" offset="0.4375"/><stop stop-opacity="1" stop-color="rgb(0%, 37.5%, 74.246216%)" offset="0.453125"/><stop stop-opacity="1" stop-color="rgb(0%, 37.283325%, 74.095154%)" offset="0.46875"/><stop stop-opacity="1" stop-color="rgb(0%, 37.06665%, 73.944092%)" offset="0.484375"/><stop stop-opacity="1" stop-color="rgb(0%, 36.849976%, 73.791504%)" offset="0.5"/><stop stop-opacity="1" stop-color="rgb(0%, 36.631775%, 73.640442%)" offset="0.515625"/><stop stop-opacity="1" stop-color="rgb(0%, 36.4151%, 73.48938%)" offset="0.53125"/><stop stop-opacity="1" stop-color="rgb(0%, 36.198425%, 73.338318%)" offset="0.546875"/><stop stop-opacity="1" stop-color="rgb(0%, 35.98175%, 73.187256%)" offset="0.5625"/><stop stop-opacity="1" stop-color="rgb(0%, 35.765076%, 73.036194%)" offset="0.578125"/><stop stop-opacity="1" stop-color="rgb(0%, 35.548401%, 72.885132%)" offset="0.59375"/><stop stop-opacity="1" stop-color="rgb(0%, 35.331726%, 72.73407%)" offset="0.609375"/><stop stop-opacity="1" stop-color="rgb(0%, 35.113525%, 72.583008%)" offset="0.625"/><stop stop-opacity="1" stop-color="rgb(0%, 34.896851%, 72.431946%)" offset="0.640625"/><stop stop-opacity="1" stop-color="rgb(0%, 34.680176%, 72.280884%)" offset="0.65625"/><stop stop-opacity="1" stop-color="rgb(0%, 34.463501%, 72.128296%)" offset="0.671875"/><stop stop-opacity="1" stop-color="rgb(0%, 34.246826%, 71.977234%)" offset="0.6875"/><stop stop-opacity="1" stop-color="rgb(0%, 34.030151%, 71.826172%)" offset="0.703125"/><stop stop-opacity="1" stop-color="rgb(0%, 33.811951%, 71.67511%)" offset="0.71875"/><stop stop-opacity="1" stop-color="rgb(0%, 33.595276%, 71.524048%)" offset="0.734375"/><stop stop-opacity="1" stop-color="rgb(0%, 33.378601%, 71.372986%)" offset="0.75"/><stop stop-opacity="1" stop-color="rgb(0%, 33.161926%, 71.221924%)" offset="0.765625"/><stop stop-opacity="1" stop-color="rgb(0%, 32.945251%, 71.070862%)" offset="0.78125"/><stop stop-opacity="1" stop-color="rgb(0%, 32.728577%, 70.9198%)" offset="0.796875"/><stop stop-opacity="1" stop-color="rgb(0%, 32.511902%, 70.768738%)" offset="0.8125"/><stop stop-opacity="1" stop-color="rgb(0%, 32.293701%, 70.61615%)" offset="0.828125"/><stop stop-opacity="1" stop-color="rgb(0%, 32.077026%, 70.465088%)" offset="0.84375"/><stop stop-opacity="1" stop-color="rgb(0%, 31.860352%, 70.314026%)" offset="0.859375"/><stop stop-opacity="1" stop-color="rgb(0%, 31.643677%, 70.162964%)" offset="0.875"/><stop stop-opacity="1" stop-color="rgb(0%, 31.427002%, 70.011902%)" offset="0.890625"/><stop stop-opacity="1" stop-color="rgb(0%, 31.210327%, 69.86084%)" offset="0.90625"/><stop stop-opacity="1" stop-color="rgb(0%, 30.993652%, 69.709778%)" offset="0.921875"/><stop stop-opacity="1" stop-color="rgb(0%, 30.775452%, 69.558716%)" offset="0.9375"/><stop stop-opacity="1" stop-color="rgb(0%, 30.558777%, 69.407654%)" offset="0.953125"/><stop stop-opacity="1" stop-color="rgb(0%, 30.342102%, 69.256592%)" offset="0.96875"/><stop stop-opacity="1" stop-color="rgb(0%, 30.125427%, 69.10553%)" offset="0.984375"/><stop stop-opacity="1" stop-color="rgb(0%, 29.908752%, 68.952942%)" offset="1"/></linearGradient><clipPath id="ea607facfd"><path d="M 37.5 219 L 148 219 L 148 330 L 37.5 330 Z M 37.5 219 " clip-rule="nonzero"/></clipPath><clipPath id="078ef3d46d"><path d="M 45.589844 219.085938 C 41.164062 219.085938 37.597656 222.683594 37.597656 227.15625 L 37.597656 321.535156 C 37.597656 326.003906 41.164062 329.605469 45.589844 329.605469 L 139.058594 329.605469 C 143.484375 329.605469 147.046875 326.003906 147.046875 321.535156 L 147.046875 227.15625 C 147.046875 222.683594 143.484375 219.085938 139.058594 219.085938 Z M 45.589844 219.085938 " clip-rule="nonzero"/></clipPath><linearGradient x1="18.746915" gradientTransform="matrix(4.36466, 0, 0, 4.360714, 37.505863, 32.010289)" y1="24.170499" x2="43.959755" gradientUnits="userSpaceOnUse" y2="49.378585" id="8c3d6d7f44"><stop stop-opacity="1" stop-color="rgb(0%, 40.556335%, 76.377869%)" offset="0"/><stop stop-opacity="1" stop-color="rgb(0%, 40.362549%, 76.242065%)" offset="0.0625"/><stop stop-opacity="1" stop-color="rgb(0%, 39.976501%, 75.973511%)" offset="0.125"/><stop stop-opacity="1" stop-color="rgb(0%, 39.590454%, 75.70343%)" offset="0.1875"/><stop stop-opacity="1" stop-color="rgb(0%, 39.204407%, 75.434875%)" offset="0.25"/><stop stop-opacity="1" stop-color="rgb(0%, 38.818359%, 75.164795%)" offset="0.3125"/><stop stop-opacity="1" stop-color="rgb(0%, 38.430786%, 74.89624%)" offset="0.375"/><stop stop-opacity="1" stop-color="rgb(0%, 38.044739%, 74.62616%)" offset="0.4375"/><stop stop-opacity="1" stop-color="rgb(0%, 37.658691%, 74.357605%)" offset="0.497391"/><stop stop-opacity="1" stop-color="rgb(0%, 37.466431%, 74.223328%)" offset="0.5"/><stop stop-opacity="1" stop-color="rgb(0%, 37.272644%, 74.087524%)" offset="0.502609"/><stop stop-opacity="1" stop-color="rgb(0%, 37.080383%, 73.953247%)" offset="0.5625"/><stop stop-opacity="1" stop-color="rgb(0%, 36.886597%, 73.81897%)" offset="0.625"/><stop stop-opacity="1" stop-color="rgb(0%, 36.500549%, 73.548889%)" offset="0.6875"/><stop stop-opacity="1" stop-color="rgb(0%, 36.114502%, 73.280334%)" offset="0.75"/><stop stop-opacity="1" stop-color="rgb(0%, 35.726929%, 73.010254%)" offset="0.8125"/><stop stop-opacity="1" stop-color="rgb(0%, 35.340881%, 72.741699%)" offset="0.875"/><stop stop-opacity="1" stop-color="rgb(0%, 34.954834%, 72.471619%)" offset="0.9375"/><stop stop-opacity="1" stop-color="rgb(0%, 34.568787%, 72.203064%)" offset="1"/></linearGradient><clipPath id="51ac36ceec"><path d="M 183 33 L 339 33 L 339 190 L 183 190 Z M 183 33 " clip-rule="nonzero"/></clipPath><clipPath id="162767729c"><path d="M 261.121094 33.121094 C 218.3125 33.117188 183.609375 68.160156 183.605469 111.386719 C 183.605469 154.613281 218.3125 189.65625 261.121094 189.65625 C 303.929688 189.65625 338.628906 154.613281 338.628906 111.386719 C 338.628906 68.160156 303.925781 33.121094 261.121094 33.121094 Z M 261.117188 80.457031 C 263.195312 80.457031 264.867188 82.144531 264.867188 84.242188 L 264.867188 107.601562 L 288.003906 107.601562 C 290.078125 107.601562 291.75 109.289062 291.75 111.386719 C 291.75 113.484375 290.078125 115.171875 288.003906 115.171875 L 264.867188 115.171875 L 264.867188 138.53125 C 264.867188 140.628906 263.195312 142.316406 261.117188 142.316406 C 259.042969 142.316406 257.371094 140.628906 257.371094 138.53125 L 257.371094 115.171875 L 234.234375 115.171875 C 232.160156 115.171875 230.488281 113.484375 230.488281 111.386719 C 230.488281 109.289062 232.160156 107.601562 234.234375 107.601562 L 257.371094 107.601562 L 257.371094 84.242188 C 257.371094 82.144531 259.042969 80.457031 261.117188 80.457031 Z M 261.117188 80.457031 " clip-rule="nonzero"/></clipPath><radialGradient gradientTransform="matrix(0.995141, 0, 0, 1.004859, 249.990619, 28.534789)" gradientUnits="userSpaceOnUse" r="116.711636" cx="0" id="f07bebf228" cy="0" fx="0" fy="0"><stop stop-opacity="1" stop-color="rgb(0%, 40.872192%, 67.918396%)" offset="0"/><stop stop-opacity="1" stop-color="rgb(0%, 41.000366%, 68.127441%)" offset="0.015625"/><stop stop-opacity="1" stop-color="rgb(0%, 41.111755%, 68.307495%)" offset="0.0273438"/><stop stop-opacity="1" stop-color="rgb(0%, 41.221619%, 68.486023%)" offset="0.0390625"/><stop stop-opacity="1" stop-color="rgb(0%, 41.331482%, 68.666077%)" offset="0.0507812"/><stop stop-opacity="1" stop-color="rgb(0%, 41.441345%, 68.844604%)" offset="0.0625"/><stop stop-opacity="1" stop-color="rgb(0%, 41.551208%, 69.024658%)" offset="0.0742188"/><stop stop-opacity="1" stop-color="rgb(0%, 41.662598%, 69.203186%)" offset="0.0859375"/><stop stop-opacity="1" stop-color="rgb(0%, 41.772461%, 69.38324%)" offset="0.0976562"/><stop stop-opacity="1" stop-color="rgb(0%, 41.882324%, 69.561768%)" offset="0.109375"/><stop stop-opacity="1" stop-color="rgb(0%, 41.992188%, 69.741821%)" offset="0.121094"/><stop stop-opacity="1" stop-color="rgb(0%, 42.156982%, 70.010376%)" offset="0.132812"/><stop stop-opacity="1" stop-color="rgb(0%, 42.378235%, 70.368958%)" offset="0.15625"/><stop stop-opacity="1" stop-color="rgb(0%, 42.597961%, 70.727539%)" offset="0.179688"/><stop stop-opacity="1" stop-color="rgb(0%, 42.819214%, 71.086121%)" offset="0.203125"/><stop stop-opacity="1" stop-color="rgb(0%, 43.03894%, 71.444702%)" offset="0.226562"/><stop stop-opacity="1" stop-color="rgb(0%, 43.258667%, 71.803284%)" offset="0.25"/><stop stop-opacity="1" stop-color="rgb(0%, 43.461609%, 72.132874%)" offset="0.273438"/><stop stop-opacity="1" stop-color="rgb(0%, 43.644714%, 72.43042%)" offset="0.292969"/><stop stop-opacity="1" stop-color="rgb(0%, 43.82782%, 72.729492%)" offset="0.3125"/><stop stop-opacity="1" stop-color="rgb(0%, 44.012451%, 73.028564%)" offset="0.332031"/><stop stop-opacity="1" stop-color="rgb(0%, 44.195557%, 73.327637%)" offset="0.351562"/><stop stop-opacity="1" stop-color="rgb(0%, 44.378662%, 73.626709%)" offset="0.371094"/><stop stop-opacity="1" stop-color="rgb(0%, 44.544983%, 73.895264%)" offset="0.390625"/><stop stop-opacity="1" stop-color="rgb(0%, 44.691467%, 74.133301%)" offset="0.40625"/><stop stop-opacity="1" stop-color="rgb(0%, 44.837952%, 74.372864%)" offset="0.421875"/><stop stop-opacity="1" stop-color="rgb(0%, 44.984436%, 74.612427%)" offset="0.4375"/><stop stop-opacity="1" stop-color="rgb(0%, 45.132446%, 74.850464%)" offset="0.453125"/><stop stop-opacity="1" stop-color="rgb(0%, 45.278931%, 75.090027%)" offset="0.46875"/><stop stop-opacity="1" stop-color="rgb(0%, 45.425415%, 75.32959%)" offset="0.484375"/><stop stop-opacity="1" stop-color="rgb(0%, 45.571899%, 75.567627%)" offset="0.5"/><stop stop-opacity="1" stop-color="rgb(0%, 45.701599%, 75.778198%)" offset="0.515625"/><stop stop-opacity="1" stop-color="rgb(0%, 45.811462%, 75.956726%)" offset="0.527344"/><stop stop-opacity="1" stop-color="rgb(0%, 45.921326%, 76.13678%)" offset="0.539062"/><stop stop-opacity="1" stop-color="rgb(0%, 46.031189%, 76.315308%)" offset="0.550781"/><stop stop-opacity="1" stop-color="rgb(0%, 46.141052%, 76.495361%)" offset="0.5625"/><stop stop-opacity="1" stop-color="rgb(0%, 46.307373%, 76.763916%)" offset="0.574219"/><stop stop-opacity="1" stop-color="rgb(0%, 46.5271%, 77.122498%)" offset="0.597656"/><stop stop-opacity="1" stop-color="rgb(0%, 46.746826%, 77.481079%)" offset="0.621094"/><stop stop-opacity="1" stop-color="rgb(0%, 46.949768%, 77.809143%)" offset="0.644531"/><stop stop-opacity="1" stop-color="rgb(0%, 47.132874%, 78.108215%)" offset="0.664062"/><stop stop-opacity="1" stop-color="rgb(0%, 47.315979%, 78.407288%)" offset="0.683594"/><stop stop-opacity="1" stop-color="rgb(0%, 47.4823%, 78.675842%)" offset="0.703125"/><stop stop-opacity="1" stop-color="rgb(0%, 47.628784%, 78.915405%)" offset="0.71875"/><stop stop-opacity="1" stop-color="rgb(0%, 47.775269%, 79.153442%)" offset="0.734375"/><stop stop-opacity="1" stop-color="rgb(0%, 47.921753%, 79.393005%)" offset="0.75"/><stop stop-opacity="1" stop-color="rgb(0%, 48.051453%, 79.602051%)" offset="0.765625"/><stop stop-opacity="1" stop-color="rgb(0%, 48.161316%, 79.782104%)" offset="0.777344"/><stop stop-opacity="1" stop-color="rgb(0%, 48.326111%, 80.050659%)" offset="0.789062"/><stop stop-opacity="1" stop-color="rgb(0%, 48.547363%, 80.409241%)" offset="0.8125"/><stop stop-opacity="1" stop-color="rgb(0%, 48.748779%, 80.738831%)" offset="0.835938"/><stop stop-opacity="1" stop-color="rgb(0%, 48.913574%, 81.007385%)" offset="0.855469"/><stop stop-opacity="1" stop-color="rgb(0%, 49.060059%, 81.245422%)" offset="0.871094"/><stop stop-opacity="1" stop-color="rgb(0%, 49.189758%, 81.455994%)" offset="0.886719"/><stop stop-opacity="1" stop-color="rgb(0%, 49.354553%, 81.724548%)" offset="0.898438"/><stop stop-opacity="1" stop-color="rgb(0%, 49.555969%, 82.052612%)" offset="0.921875"/><stop stop-opacity="1" stop-color="rgb(0%, 49.703979%, 82.292175%)" offset="0.941406"/><stop stop-opacity="1" stop-color="rgb(0%, 49.868774%, 82.56073%)" offset="0.953125"/><stop stop-opacity="1" stop-color="rgb(0%, 50.088501%, 82.919312%)" offset="0.976562"/><stop stop-opacity="1" stop-color="rgb(0%, 50.19989%, 83.099365%)" offset="1"/></radialGradient><clipPath id="54bed773fa"><path d="M 190 39 L 345 39 L 345 197 L 190 197 Z M 190 39 " clip-rule="nonzero"/></clipPath></defs><g clip-path="url(#d0dfb810b0)"><g clip-path="url(#1ffd3c8728)"><path fill="url(#a8cecc7c3e)" d="M 37.597656 66.082031 L 37.597656 329.605469 L 298.574219 329.605469 L 298.574219 66.082031 Z M 37.597656 66.082031 " fill-rule="nonzero"/></g></g><g clip-path="url(#ea607facfd)"><g clip-path="url(#078ef3d46d)"><path fill="url(#8c3d6d7f44)" d="M 37.597656 219.085938 L 37.597656 329.605469 L 147.046875 329.605469 L 147.046875 219.085938 Z M 37.597656 219.085938 " fill-rule="nonzero"/></g></g><g clip-path="url(#51ac36ceec)"><g clip-path="url(#162767729c)"><path fill="url(#f07bebf228)" d="M 183.605469 33.117188 L 183.605469 189.65625 L 338.628906 189.65625 L 338.628906 33.117188 Z M 183.605469 33.117188 " fill-rule="nonzero"/></g></g><path fill="#0080d4" d="M 65.21875 72.628906 C 53.621094 72.628906 44.082031 82.261719 44.082031 93.972656 L 44.082031 174.867188 C 44.082031 186.578125 53.621094 196.203125 65.21875 196.203125 L 145.332031 196.203125 C 156.929688 196.203125 166.46875 186.578125 166.46875 174.867188 L 166.46875 93.972656 C 166.46875 82.261719 156.929688 72.628906 145.332031 72.628906 Z M 65.21875 85.691406 L 145.332031 85.691406 C 149.988281 85.691406 153.535156 89.269531 153.535156 93.972656 L 153.535156 174.867188 C 153.535156 179.570312 149.988281 183.152344 145.332031 183.152344 L 65.21875 183.152344 C 60.5625 183.152344 57.015625 179.570312 57.015625 174.867188 L 57.015625 93.972656 C 57.015625 89.269531 60.5625 85.691406 65.21875 85.691406 Z M 203.808594 212.570312 C 192.210938 212.570312 182.679688 222.203125 182.679688 233.914062 L 182.679688 314.808594 C 182.679688 326.519531 192.210938 336.152344 203.808594 336.152344 L 283.917969 336.152344 C 295.515625 336.152344 305.054688 326.519531 305.054688 314.808594 L 305.054688 233.914062 C 305.054688 222.203125 295.515625 212.570312 283.917969 212.570312 Z M 203.808594 225.632812 L 283.917969 225.632812 C 288.574219 225.632812 292.121094 229.210938 292.121094 233.914062 L 292.121094 314.808594 C 292.121094 319.511719 288.574219 323.089844 283.917969 323.089844 L 203.808594 323.089844 C 199.148438 323.089844 195.605469 319.511719 195.605469 314.808594 L 195.605469 233.914062 C 195.605469 229.210938 199.148438 225.632812 203.808594 225.632812 Z M 203.808594 225.632812 " fill-opacity="0.237" fill-rule="nonzero"/><path fill="#0080d4" d="M 52.074219 225.632812 C 47.644531 225.632812 44.082031 229.230469 44.082031 233.699219 L 44.082031 328.082031 C 44.082031 332.550781 47.644531 336.152344 52.074219 336.152344 L 145.539062 336.152344 C 149.96875 336.152344 153.53125 332.550781 153.53125 328.082031 L 153.53125 233.699219 C 153.53125 229.230469 149.96875 225.632812 145.539062 225.632812 Z M 52.074219 225.632812 " fill-opacity="0.237" fill-rule="nonzero"/><g clip-path="url(#54bed773fa)"><path fill="#0080d4" d="M 267.605469 39.664062 C 224.796875 39.664062 190.09375 74.707031 190.089844 117.933594 C 190.089844 161.160156 224.796875 196.203125 267.605469 196.203125 C 310.410156 196.203125 345.113281 161.160156 345.113281 117.933594 C 345.113281 74.707031 310.410156 39.667969 267.605469 39.664062 Z M 267.605469 39.664062 " fill-opacity="0.237" fill-rule="nonzero"/></g></svg>